<svg xmlns="http://www.w3.org/2000/svg" xml:space="preserve" fill-rule="evenodd" stroke-linejoin="round" stroke-miterlimit="2" clip-rule="evenodd" viewBox="0 0 128 128">
  <path fill="#3156ff" fill-rule="nonzero" d="M103 25.3a62.3 62.3 0 0 1 10.9 5.3c1.6 1.1 3 2.4 4.4 4a19 19 0 0 1 3.2 5 62 62 0 0 1-13.3 68.6A62.6 62.6 0 0 1 6.4 39.6c.8-2 1.9-3.6 3.2-5a24 24 0 0 1 4.5-4A59.6 59.6 0 0 1 25 25.3V23l.3-1.4c.3-2.4 1-4.5 2.2-6.5a19.7 19.7 0 0 1 17-9.8 19 19 0 0 1 11.9-3.9A20.3 20.3 0 0 1 64 3.1a18 18 0 0 1 7.7-1.6 20.1 20.1 0 0 1 11.8 3.9 20.8 20.8 0 0 1 17 9.6 16.3 16.3 0 0 1 2.3 6.6 76 76 0 0 1 .2 3.7Z"/>
  <path fill="#ff5153" fill-rule="nonzero" d="M114.7 44.8a15.6 15.6 0 0 1-5.8 12.7 26.2 26.2 0 0 1-6.3 4A73.6 73.6 0 0 1 78 66.8a154.3 154.3 0 0 1-39.9-2.3 63 63 0 0 1-13.4-4.7 29.4 29.4 0 0 1-5.9-3.9c-1.7-1.4-3-3-4.1-5-1-1.8-1.6-3.8-1.6-6.2 0-1.7.6-3.2 1.7-4.6a17 17 0 0 1 4.5-3.8c1.8-1.1 3.8-2 6-3A82.2 82.2 0 0 1 43 29a130.8 130.8 0 0 1 31.5-1.2 130.8 130.8 0 0 1 21.4 3.5c2.2.7 4.4 1.4 6.6 2.3a24 24 0 0 1 6 3 14 14 0 0 1 4.5 3.7 7 7 0 0 1 1.7 4.6Z"/>
  <path fill="#69c0b7" fill-rule="nonzero" d="M64 67.3a175.8 175.8 0 0 1-21-1.4 97.5 97.5 0 0 1-16.3-4c-2.5-1-4.7-2-6.6-3.4a16.5 16.5 0 0 1-4.5-4.6A10.8 10.8 0 0 1 14 48a5 5 0 0 1 2-4 18 18 0 0 1 5-3.3c2-1 4.1-1.8 6.6-2.5A133.8 133.8 0 0 1 45 34a136.3 136.3 0 0 1 42.8.9 88 88 0 0 1 12.1 3.3 44 44 0 0 1 10.7 5.8c1.5 1.2 2.5 2.5 3.3 4 0 2.3-.6 4.4-1.7 6.1a16.6 16.6 0 0 1-4.4 4.7 25 25 0 0 1-6.5 3.4A57.8 57.8 0 0 1 85.2 66 142 142 0 0 1 64 67.3Z"/>
  <g fill-rule="nonzero">
    <path fill="#fbde97" d="M71.8 49.4c1.2.7 2.1 1.6 2.9 2.8a7.5 7.5 0 0 1 .4 7 8 8 0 0 1-4.2 4c-1 .5-2 .7-3 .7-1.4 0-2.7-.3-4-1-1.2.7-2.5 1-3.8 1-1.1 0-2.1-.2-3-.6a8 8 0 0 1-4.2-4.2c-.5-1-.7-2-.7-3 0-1.4.4-2.7 1-3.9a8.2 8.2 0 0 1 3-2.8V32.7c0-1.1.3-2 1-2.8a4 4 0 0 1 2.9-1.1c1 0 2 .3 2.7 1.1.8.8 1.2 1.7 1.2 2.8 0-1.1.4-2 1.1-2.8.8-.8 1.7-1.1 2.8-1.1 1 0 2 .3 2.8 1.1.7.8 1.1 1.7 1.1 2.8v16.7Z"/>
    <path fill="#f9844a" d="M83.5 13.2A12.5 12.5 0 0 1 93.7 19a10 10 0 0 1 1.4 3.9v.4l-.2 1.4c-.2.4-.2.9-.3 1.3l-.3.7-1.9 3.6c-.5 1-1.2 2-2 2.6a6 6 0 0 1-2.7 1.6 13.5 13.5 0 0 1-7 .2 11.8 11.8 0 0 1-13.2 3.4A8 8 0 0 1 64 36a12 12 0 0 1-16.8-1.2l-2.7.3a13 13 0 0 1-3.5-.4 8.5 8.5 0 0 1-5-3 14 14 0 0 1-1.7-2.9 18.7 18.7 0 0 1-1.1-2.8l-.3-1.4V23a12 12 0 0 1 4-7 12.3 12.3 0 0 1 7.6-2.7l1.4.1 1.3.2h33.6c.4 0 .8 0 1.3-.2a6 6 0 0 1 1.4-.1Zm-50 47.3a8 8 0 0 1 4-3.8 7.4 7.4 0 0 1 4-.5A7.8 7.8 0 0 1 56.1 60a7.6 7.6 0 0 1-1 3.8H55a137.6 137.6 0 0 1-21.4-3.3Zm39.3 3.3-.4-.8a7.7 7.7 0 0 1 11-9.8c1.3.8 2.3 1.8 3 3a8.5 8.5 0 0 1 1.2-.1c1 0 2 .2 3 .6a8 8 0 0 1 3.8 3.8l-.5.1A98 98 0 0 1 73 63.8h-.2Z"/>
    <path fill="#f9c74f" d="M56.1 17c-2.5 0-4.7.8-6.7 2.2-2 1.5-3.4 3.3-4.3 5.7A11.7 11.7 0 0 1 48 12.7a12 12 0 0 1 8-3.4 11.6 11.6 0 0 1 7.9 3 11.7 11.7 0 0 1 12.4-2 11.9 11.9 0 0 1 6.2 6.1 11.8 11.8 0 0 1 .2 8.5 11.5 11.5 0 0 0-11-7.8 12 12 0 0 0-7.8 3c-1-1-2.3-1.8-3.6-2.3a12 12 0 0 0-4.3-.7ZM68 56a8.1 8.1 0 0 1 7.2 4.8 8.1 8.1 0 0 1 0 6.1 8 8 0 0 1-4.2 4.2 8.1 8.1 0 0 1-7-.4c-1.2.7-2.5 1-3.8 1-1.1 0-2.1-.2-3-.6A8 8 0 0 1 53 67c-.5-1-.7-2-.7-3 0-1.2.2-2.2.7-3.1a8 8 0 0 1 4.1-4.2c1-.4 2-.6 3-.6V37.7l4-2.3 3.9 2.3V56Z"/>
    <path fill="#ff5153" d="M83.5 32.7a11.5 11.5 0 0 0 7.6-2.8 12 12 0 0 0 2.6-3.1c.7-1.2 1.1-2.5 1.4-4a11.8 11.8 0 0 1-3.3 10.3 12 12 0 0 1-8.3 3.5l-1.4-.1-1.3-.3a12.2 12.2 0 0 1-4 3.2 11.1 11.1 0 0 1-9.2.3 12 12 0 0 1-3.6-2.2 12 12 0 0 1-7.9 3 12 12 0 0 1-4.9-1.1c-1.6-.8-2.9-1.9-4-3.2a16 16 0 0 1-2.7.4 11.3 11.3 0 0 1-8.3-3.5 12 12 0 0 1-3.5-8.3c0-.6 0-1.3.2-2 .2 1.5.7 2.8 1.4 4a12 12 0 0 0 6 5.1 11.5 11.5 0 0 0 6.9.4 11 11 0 0 0 4 3.1 11.1 11.1 0 0 0 9.2.4c1.3-.6 2.5-1.3 3.6-2.3a12.1 12.1 0 0 0 7.8 3c1.7 0 3.4-.3 5-1 1.5-.8 2.8-1.9 4-3.2a15.8 15.8 0 0 0 2.7.4Z"/>
  </g>
  <path fill="#ff5153" fill-rule="nonzero" d="M114.7 44.8v-1l-.2-.9a51.7 51.7 0 0 1 4.1 21 53.6 53.6 0 0 1-16 38.7 54.4 54.4 0 0 1-77.3 0 54.4 54.4 0 0 1-12-58.8v1c0 1.9.6 3.5 1.8 5a19 19 0 0 0 5 3.9 39 39 0 0 0 6.6 3A88.6 88.6 0 0 0 46 61.3 138.3 138.3 0 0 0 94 59c2.4-.6 4.8-1.4 7.3-2.3a39 39 0 0 0 6.7-3 19 19 0 0 0 5-4 7.3 7.3 0 0 0 1.8-4.9Z"/>
  <path fill="#3156ff" fill-rule="nonzero" d="M42.5 67.9a5.8 5.8 0 0 1 4.1 1.7 8 8 0 0 1 1.3 1.9c.3.7.4 1.5.4 2.3v7.7c0 .8-.1 1.6-.4 2.3a8 8 0 0 1-1.3 1.9c-.5.5-1 1-1.8 1.2a5.8 5.8 0 0 1-4.6 0 6 6 0 0 1-3.1-3c-.3-.8-.5-1.5-.5-2.4v-7.7a5.8 5.8 0 0 1 1.8-4.2 6 6 0 0 1 4.1-1.7Zm43 0a5.8 5.8 0 0 1 4 1.7 5.9 5.9 0 0 1 1.8 4.2v7.7a5.7 5.7 0 0 1-1.7 4.2 5.9 5.9 0 0 1-8.3 0 6 6 0 0 1-1.3-2 5 5 0 0 1-.4-2.2v-7.7c0-.8.1-1.6.4-2.3a6 6 0 0 1 5.4-3.6ZM64 91.3a11.3 11.3 0 0 1 8.2 3.5 11.3 11.3 0 0 1 3.4 8.3 11.3 11.3 0 0 1-3.4 8.2 11.9 11.9 0 0 1-8.2 3.4c-1.7 0-3.2-.3-4.6-.9a12.2 12.2 0 0 1-6.2-6.2 11.3 11.3 0 0 1 2.5-12.9 12 12 0 0 1 8.3-3.4Z"/>
</svg>
